# xmcd CD database file
#
# Track frame offsets:
#	150
#	11830
#	22527
#	35475
#	47387
#	60802
#	74112
#	86342
#	98367
#	112030
#	124500
#	137622
#	152195
#	165732
#	178115
#	191355
#
# Disc length: 2693 seconds
#
# Revision: 0
# Processed by: cddbd v1.4PL0 Copyright (c) Steve Scherf et al.
# Submitted via: CD2WAV32(EN) R3.19
#
DISCID=bf0a8310
DTITLE=Robert Jr. Lockwood - P-Vine Presents 21 Blues Giants13
DYEAR=1900
DGENRE=
TTITLE0=Aw Aw Baby(Sweet Home Chicago)
TTITLE1=Glad I Don't Have To Worry No More
TTITLE2=Down Home Child
TTITLE3=Sunny Land Special
TTITLE4=Sweet Woman From Maine
TTITLE5=Mary Lee
TTITLE6=Dust My Broom
TTITLE7=I'm Gonna Dig Myself A Hole
TTITLE8=Leaving Your Town(No Name Blues)
TTITLE9=You've Got To Stop This Mess
TTITLE10=That Woman
TTITLE11=Hit The Road Again
TTITLE12=Gin Drinkin' Baby
TTITLE13=Ain't Nothing But A Child
TTITLE14=Brown Skinned Woman
TTITLE15=Take A Little Walk With Me
EXTD=
EXTT0=
EXTT1=
EXTT2=
EXTT3=
EXTT4=
EXTT5=
EXTT6=
EXTT7=
EXTT8=
EXTT9=
EXTT10=
EXTT11=
EXTT12=
EXTT13=
EXTT14=
EXTT15=
PLAYORDER=
